<?xml version="1.0" encoding="UTF-8" standalone="no"?>
<!-- Created with Inkscape (http://www.inkscape.org/) -->
<svg
   xmlns:dc="http://purl.org/dc/elements/1.1/"
   xmlns:cc="http://creativecommons.org/ns#"
   xmlns:rdf="http://www.w3.org/1999/02/22-rdf-syntax-ns#"
   xmlns:svg="http://www.w3.org/2000/svg"
   xmlns="http://www.w3.org/2000/svg"
   xmlns:sodipodi="http://sodipodi.sourceforge.net/DTD/sodipodi-0.dtd"
   xmlns:inkscape="http://www.inkscape.org/namespaces/inkscape"
   width="48px"
   height="48px"
   id="svg3304"
   sodipodi:version="0.32"
   inkscape:version="0.46"
   sodipodi:docbase="/home/andreas/project/highcontrast/scalable/actions"
   sodipodi:docname="contact-find.svg"
   inkscape:output_extension="org.inkscape.output.svg.inkscape"
   enable-background="new">
  <defs
     id="defs3306"><inkscape:perspective
   sodipodi:type="inkscape:persp3d"
   inkscape:vp_x="0 : 24 : 1"
   inkscape:vp_y="0 : 1000 : 0"
   inkscape:vp_z="48 : 24 : 1"
   inkscape:persp3d-origin="24 : 16 : 1"
   id="perspective2472" />

				
				
			</defs>
  <sodipodi:namedview
     id="base"
     pagecolor="#ffffff"
     bordercolor="#666666"
     borderopacity="1.0"
     inkscape:pageopacity="0.15686275"
     inkscape:pageshadow="2"
     inkscape:zoom="11.097784"
     inkscape:cx="22.313809"
     inkscape:cy="23.96875"
     inkscape:current-layer="layer1"
     showgrid="true"
     inkscape:grid-bbox="true"
     inkscape:document-units="px"
     inkscape:window-width="1135"
     inkscape:window-height="747"
     inkscape:window-x="203"
     inkscape:window-y="39">
    <inkscape:grid
       type="xygrid"
       id="grid2586"
       visible="true"
       enabled="true" />
  </sodipodi:namedview>
  <metadata
     id="metadata3309">
    <rdf:RDF>
      <cc:Work
         rdf:about="">
        <dc:format>image/svg+xml</dc:format>
        <dc:type
           rdf:resource="http://purl.org/dc/dcmitype/StillImage" />
        <dc:title>New Contact</dc:title>
        <dc:date>September 2006</dc:date>
        <dc:creator>
          <cc:Agent>
            <dc:title>Andreas Nilsson</dc:title>
          </cc:Agent>
        </dc:creator>
        <dc:subject>
          <rdf:Bag>
            <rdf:li>contact</rdf:li>
            <rdf:li>address</rdf:li>
            <rdf:li>add</rdf:li>
          </rdf:Bag>
        </dc:subject>
        <dc:source>http://www.gnome.org</dc:source>
        <cc:license
           rdf:resource="http://creativecommons.org/licenses/GPL/2.0/" />
      </cc:Work>
      <cc:License
         rdf:about="http://creativecommons.org/licenses/GPL/2.0/">
        <cc:permits
           rdf:resource="http://web.resource.org/cc/Reproduction" />
        <cc:permits
           rdf:resource="http://web.resource.org/cc/Distribution" />
        <cc:requires
           rdf:resource="http://web.resource.org/cc/Notice" />
        <cc:permits
           rdf:resource="http://web.resource.org/cc/DerivativeWorks" />
        <cc:requires
           rdf:resource="http://web.resource.org/cc/ShareAlike" />
        <cc:requires
           rdf:resource="http://web.resource.org/cc/SourceCode" />
      </cc:License>
    </rdf:RDF>
  </metadata>
  <g
     id="layer1"
     inkscape:label="person torso"
     inkscape:groupmode="layer"
     style="display:inline">
    <path
       style="opacity:1;fill:#000000;fill-opacity:1;stroke:#ffffff;stroke-width:4;stroke-linecap:round;stroke-linejoin:round;stroke-miterlimit:4;stroke-dasharray:none;stroke-dashoffset:0;stroke-opacity:1"
       d="M 24,2.0625 C 16.271999,2.0625 9.9999999,8.3229641 10,16.03125 C 10,20.477656 12.094241,24.442056 15.34375,27 L 10.34375,27 C 5.7138931,27 2,31.237 2,36.5 L 2,46 L 46,46 L 46,36.5 C 46,31.237002 42.286108,27 37.65625,27 L 32.65625,27 C 35.905759,24.442056 38.000001,20.477656 38,16.03125 C 38,8.3229641 31.728002,2.0625 24,2.0625 z"
       id="rect4337" />
  </g>
  <g
     inkscape:groupmode="layer"
     id="layer2"
     inkscape:label="magnifying glass"
     style="display:inline">
    <path
       sodipodi:type="inkscape:offset"
       inkscape:radius="0"
       inkscape:original="M 20.15625 12.4375 C 13.382629 12.4375 7.90625 18.174113 7.90625 25.25 C 7.90625 32.325886 13.38263 38.0625 20.15625 38.0625 C 23.101302 38.062499 25.871545 36.939634 28.03125 35.09375 C 27.736744 36.016694 27.906571 37.157157 28.59375 37.875 L 36.25 45.84375 C 37.231684 46.869241 38.924566 46.86924 39.90625 45.84375 C 40.887933 44.81826 40.887934 43.087991 39.90625 42.0625 L 32.25 34.0625 C 31.562821 33.344658 30.477266 33.129853 29.59375 33.4375 C 31.360782 31.181418 32.4375 28.326472 32.4375 25.25 C 32.437499 18.174113 26.929871 12.4375 20.15625 12.4375 z "
       style="fill:#000000;fill-rule:nonzero;stroke-miterlimit:4"
       id="path2884"
       d="M 20.15625,12.4375 C 13.382629,12.4375 7.90625,18.174113 7.90625,25.25 C 7.90625,32.325886 13.38263,38.0625 20.15625,38.0625 C 23.101302,38.062499 25.871545,36.939634 28.03125,35.09375 C 27.736744,36.016694 27.906571,37.157157 28.59375,37.875 L 36.25,45.84375 C 37.231684,46.869241 38.924566,46.86924 39.90625,45.84375 C 40.887933,44.81826 40.887934,43.087991 39.90625,42.0625 L 32.25,34.0625 C 31.562821,33.344658 30.477266,33.129853 29.59375,33.4375 C 31.360782,31.181418 32.4375,28.326472 32.4375,25.25 C 32.437499,18.174113 26.929871,12.4375 20.15625,12.4375 z" />
    <path
       style="fill:#000000;fill-rule:nonzero;stroke-miterlimit:4;stroke:#ffffff;opacity:1"
       d="M 39.894034,42.064469 L 32.236897,34.06564 C 31.549718,33.347797 30.469866,33.142699 29.58635,33.450346 C 31.353381,31.194266 32.433234,28.322892 32.433234,25.24642 C 32.433234,18.170533 26.935802,12.427785 20.162181,12.427785 C 13.388561,12.427785 7.891129,18.170533 7.891129,25.24642 C 7.891129,32.322306 13.388561,38.065055 20.162181,38.065055 C 23.107234,38.065055 25.85595,36.937015 28.015655,35.091131 C 27.72115,36.014073 27.917487,37.142113 28.604666,37.859956 L 36.261802,45.858785 C 37.243487,46.884275 38.91235,46.884275 39.894034,45.858785 C 40.875718,44.833294 40.875718,43.08996 39.894034,42.064469 z"
       id="path2876" />
    <path
       style="fill:#000000;fill-rule:nonzero;stroke-miterlimit:4"
       d="M 20.162181,34.578386 C 15.155592,34.578386 11.130687,30.373874 11.130687,25.143871 C 11.130687,19.913867 15.155592,15.709355 20.162181,15.709355 C 25.168771,15.709355 29.193676,19.913867 29.193676,25.143871 C 29.193676,30.373874 25.168771,34.578386 20.162181,34.578386 z"
       id="path17" />
    <path
       style="fill:#ffffff;fill-rule:nonzero;stroke-miterlimit:4"
       id="path19"
       d="M 29.193676,25.143871 C 29.193676,30.373874 25.168771,34.578386 20.162181,34.578386 C 15.155592,34.578386 11.130687,30.373874 11.130687,25.143871 C 11.130687,19.913867 15.155592,15.709355 20.162181,15.709355 C 25.168771,15.709355 29.193676,19.913867 29.193676,25.143871 z" />
  </g>
</svg>
